<mxfile modified="2022-05-20T02:36:38.432Z" host="app.diagrams.net" agent="5.0 (Windows NT 10.0; Win64; x64) AppleWebKit/537.36 (KHTML, like Gecko) Chrome/101.0.4951.54 Safari/537.36" etag="Tw6ZRbPqpYxhckoTTphP" compressed="false" version="18.0.8" type="google">
  <diagram id="nRleIn9jNZKj9x8R8iPH" name="Integration/System Logical Module/API/Resource URLs/Principals">
    <mxGraphModel grid="1" page="1" gridSize="10" guides="1" tooltips="1" connect="1" arrows="1" fold="1" pageScale="1" pageWidth="850" pageHeight="1100" math="0" shadow="0">
      <root>
        <mxCell id="W7s1Gj_pDaNodwp3Ctu9-0" />
        <mxCell id="W7s1Gj_pDaNodwp3Ctu9-1" value="Diagram" parent="W7s1Gj_pDaNodwp3Ctu9-0" />
        <mxCell id="edbAlIy0U3GN4QDfhpz5-2" value="List System Affinity Zones" style="text;html=1;strokeColor=none;fillColor=none;align=left;verticalAlign=middle;whiteSpace=wrap;rounded=0;dashed=1;fontFamily=Helvetica;fontSize=12;" vertex="1" parent="W7s1Gj_pDaNodwp3Ctu9-1">
          <mxGeometry x="400" y="300" width="320" height="20" as="geometry" />
        </mxCell>
        <mxCell id="edbAlIy0U3GN4QDfhpz5-3" value="AffinityZones" style="text;html=1;strokeColor=none;fillColor=none;align=left;verticalAlign=middle;whiteSpace=wrap;rounded=0;dashed=1;fontSize=12;fontFamily=Courier New;" vertex="1" parent="W7s1Gj_pDaNodwp3Ctu9-1">
          <mxGeometry x="160" y="300" width="200" height="20" as="geometry" />
        </mxCell>
        <mxCell id="edbAlIy0U3GN4QDfhpz5-6" value="AffinityZones/{uuid}" style="text;html=1;strokeColor=none;fillColor=none;align=left;verticalAlign=middle;whiteSpace=wrap;rounded=0;dashed=1;fontSize=12;fontFamily=Courier New;" vertex="1" parent="W7s1Gj_pDaNodwp3Ctu9-1">
          <mxGeometry x="160" y="400" width="200" height="20" as="geometry" />
        </mxCell>
        <mxCell id="edbAlIy0U3GN4QDfhpz5-7" value="View System&amp;nbsp;AffinityZone {uuid}" style="text;html=1;strokeColor=none;fillColor=none;align=left;verticalAlign=middle;whiteSpace=wrap;rounded=0;dashed=1;fontFamily=Helvetica;fontSize=12;" vertex="1" parent="W7s1Gj_pDaNodwp3Ctu9-1">
          <mxGeometry x="400" y="400" width="320" height="20" as="geometry" />
        </mxCell>
        <mxCell id="edbAlIy0U3GN4QDfhpz5-10" value="GET" style="text;html=1;strokeColor=none;fillColor=none;align=left;verticalAlign=middle;whiteSpace=wrap;rounded=0;dashed=1;fontSize=12;fontFamily=Courier New;" vertex="1" parent="W7s1Gj_pDaNodwp3Ctu9-1">
          <mxGeometry x="120" y="300" width="40" height="20" as="geometry" />
        </mxCell>
        <mxCell id="edbAlIy0U3GN4QDfhpz5-14" value="GET" style="text;html=1;strokeColor=none;fillColor=none;align=left;verticalAlign=middle;whiteSpace=wrap;rounded=0;dashed=1;fontSize=12;fontFamily=Courier New;" vertex="1" parent="W7s1Gj_pDaNodwp3Ctu9-1">
          <mxGeometry x="120" y="400" width="40" height="20" as="geometry" />
        </mxCell>
        <mxCell id="edbAlIy0U3GN4QDfhpz5-15" value="POST" style="text;html=1;strokeColor=none;fillColor=none;align=left;verticalAlign=middle;whiteSpace=wrap;rounded=0;dashed=1;fontSize=12;fontFamily=Courier New;" vertex="1" parent="W7s1Gj_pDaNodwp3Ctu9-1">
          <mxGeometry x="120" y="440" width="40" height="20" as="geometry" />
        </mxCell>
        <mxCell id="edbAlIy0U3GN4QDfhpz5-16" value="AffinityZones" style="text;html=1;strokeColor=none;fillColor=none;align=left;verticalAlign=middle;whiteSpace=wrap;rounded=0;dashed=1;fontSize=12;fontFamily=Courier New;" vertex="1" parent="W7s1Gj_pDaNodwp3Ctu9-1">
          <mxGeometry x="160" y="440" width="200" height="20" as="geometry" />
        </mxCell>
        <mxCell id="edbAlIy0U3GN4QDfhpz5-17" value="POST" style="text;html=1;strokeColor=none;fillColor=none;align=left;verticalAlign=middle;whiteSpace=wrap;rounded=0;dashed=1;fontSize=12;fontFamily=Courier New;" vertex="1" parent="W7s1Gj_pDaNodwp3Ctu9-1">
          <mxGeometry x="120" y="460" width="40" height="20" as="geometry" />
        </mxCell>
        <mxCell id="edbAlIy0U3GN4QDfhpz5-18" value="AffinityZones(&#39;{uuid}&#39;)" style="text;html=1;strokeColor=none;fillColor=none;align=left;verticalAlign=middle;whiteSpace=wrap;rounded=0;dashed=1;fontSize=12;fontFamily=Courier New;" vertex="1" parent="W7s1Gj_pDaNodwp3Ctu9-1">
          <mxGeometry x="160" y="460" width="200" height="20" as="geometry" />
        </mxCell>
        <mxCell id="edbAlIy0U3GN4QDfhpz5-19" value="&lt;font style=&quot;font-size: 11px&quot;&gt;Create AffinityZones, server side generated Id. &lt;b&gt;&lt;font color=&quot;#cc0000&quot; style=&quot;font-size: 11px&quot;&gt;&lt;u&gt;NOT&lt;/u&gt;&lt;/font&gt; &lt;/b&gt;recommended.&lt;/font&gt;" style="text;html=1;strokeColor=none;fillColor=none;align=left;verticalAlign=middle;whiteSpace=wrap;rounded=0;dashed=1;fontFamily=Helvetica;fontSize=11;" vertex="1" parent="W7s1Gj_pDaNodwp3Ctu9-1">
          <mxGeometry x="400" y="440" width="340" height="20" as="geometry" />
        </mxCell>
        <mxCell id="edbAlIy0U3GN4QDfhpz5-20" value="&lt;font&gt;Create AffinityZones, client side generated UUID. &lt;font color=&quot;#009900&quot; size=&quot;1&quot;&gt;&lt;b&gt;RECOMMENDED&lt;/b&gt;&lt;/font&gt;.&lt;/font&gt;" style="text;html=1;strokeColor=none;fillColor=none;align=left;verticalAlign=middle;whiteSpace=wrap;rounded=0;dashed=1;fontFamily=Helvetica;fontSize=11;" vertex="1" parent="W7s1Gj_pDaNodwp3Ctu9-1">
          <mxGeometry x="400" y="460" width="340" height="20" as="geometry" />
        </mxCell>
        <mxCell id="edbAlIy0U3GN4QDfhpz5-21" value="PUT" style="text;html=1;strokeColor=none;fillColor=none;align=left;verticalAlign=middle;whiteSpace=wrap;rounded=0;dashed=1;fontSize=12;fontFamily=Courier New;" vertex="1" parent="W7s1Gj_pDaNodwp3Ctu9-1">
          <mxGeometry x="120" y="420" width="40" height="20" as="geometry" />
        </mxCell>
        <mxCell id="edbAlIy0U3GN4QDfhpz5-22" value="AffinityZones(&#39;{uuid}&#39;)" style="text;html=1;strokeColor=none;fillColor=none;align=left;verticalAlign=middle;whiteSpace=wrap;rounded=0;dashed=1;fontSize=12;fontFamily=Courier New;" vertex="1" parent="W7s1Gj_pDaNodwp3Ctu9-1">
          <mxGeometry x="160" y="420" width="200" height="20" as="geometry" />
        </mxCell>
        <mxCell id="edbAlIy0U3GN4QDfhpz5-23" value="Edit System AffinityZone {uuid}." style="text;html=1;strokeColor=none;fillColor=none;align=left;verticalAlign=middle;whiteSpace=wrap;rounded=0;dashed=1;fontFamily=Helvetica;fontSize=12;" vertex="1" parent="W7s1Gj_pDaNodwp3Ctu9-1">
          <mxGeometry x="400" y="420" width="320" height="20" as="geometry" />
        </mxCell>
        <mxCell id="edbAlIy0U3GN4QDfhpz5-24" value="DELETE" style="text;html=1;strokeColor=none;fillColor=none;align=left;verticalAlign=middle;whiteSpace=wrap;rounded=0;dashed=1;fontSize=10;fontFamily=Courier New;" vertex="1" parent="W7s1Gj_pDaNodwp3Ctu9-1">
          <mxGeometry x="120" y="480" width="40" height="20" as="geometry" />
        </mxCell>
        <mxCell id="edbAlIy0U3GN4QDfhpz5-25" value="AffinityZones(&#39;{uuid}&#39;)" style="text;html=1;strokeColor=none;fillColor=none;align=left;verticalAlign=middle;whiteSpace=wrap;rounded=0;dashed=1;fontSize=12;fontFamily=Courier New;" vertex="1" parent="W7s1Gj_pDaNodwp3Ctu9-1">
          <mxGeometry x="160" y="480" width="200" height="20" as="geometry" />
        </mxCell>
        <mxCell id="edbAlIy0U3GN4QDfhpz5-26" value="Retire System&amp;nbsp;AffinityZone {uuid}" style="text;html=1;strokeColor=none;fillColor=none;align=left;verticalAlign=middle;whiteSpace=wrap;rounded=0;dashed=1;fontFamily=Helvetica;fontSize=12;" vertex="1" parent="W7s1Gj_pDaNodwp3Ctu9-1">
          <mxGeometry x="400" y="480" width="320" height="20" as="geometry" />
        </mxCell>
        <mxCell id="edbAlIy0U3GN4QDfhpz5-28" value="&lt;font style=&quot;font-size: 10px&quot;&gt;List System&amp;nbsp;AffinityZones, pg 3, using ODATA standard filter arguments.&lt;/font&gt;" style="text;html=1;strokeColor=none;fillColor=none;align=left;verticalAlign=middle;whiteSpace=wrap;rounded=0;dashed=1;fontFamily=Helvetica;fontSize=12;" vertex="1" parent="W7s1Gj_pDaNodwp3Ctu9-1">
          <mxGeometry x="400" y="340" width="330" height="20" as="geometry" />
        </mxCell>
        <mxCell id="edbAlIy0U3GN4QDfhpz5-29" value="AffinityZones?$top=80&amp;amp;$skip=60" style="text;html=1;strokeColor=none;fillColor=none;align=left;verticalAlign=middle;whiteSpace=wrap;rounded=0;dashed=1;fontSize=12;fontFamily=Courier New;" vertex="1" parent="W7s1Gj_pDaNodwp3Ctu9-1">
          <mxGeometry x="160" y="340" width="200" height="20" as="geometry" />
        </mxCell>
        <mxCell id="edbAlIy0U3GN4QDfhpz5-30" value="GET" style="text;html=1;strokeColor=none;fillColor=none;align=left;verticalAlign=middle;whiteSpace=wrap;rounded=0;dashed=1;fontSize=12;fontFamily=Courier New;" vertex="1" parent="W7s1Gj_pDaNodwp3Ctu9-1">
          <mxGeometry x="120" y="340" width="40" height="20" as="geometry" />
        </mxCell>
        <mxCell id="edbAlIy0U3GN4QDfhpz5-31" value="&lt;font style=&quot;font-size: 10px&quot;&gt;Count System&amp;nbsp;AffinityZones, using ODATA standard filter arguments.&lt;/font&gt;" style="text;html=1;strokeColor=none;fillColor=none;align=left;verticalAlign=middle;whiteSpace=wrap;rounded=0;dashed=1;fontFamily=Helvetica;fontSize=12;" vertex="1" parent="W7s1Gj_pDaNodwp3Ctu9-1">
          <mxGeometry x="400" y="320" width="320" height="20" as="geometry" />
        </mxCell>
        <mxCell id="edbAlIy0U3GN4QDfhpz5-32" value="AffinityZones?$count=true" style="text;html=1;strokeColor=none;fillColor=none;align=left;verticalAlign=middle;whiteSpace=wrap;rounded=0;dashed=1;fontSize=12;fontFamily=Courier New;" vertex="1" parent="W7s1Gj_pDaNodwp3Ctu9-1">
          <mxGeometry x="160" y="320" width="200" height="20" as="geometry" />
        </mxCell>
        <mxCell id="edbAlIy0U3GN4QDfhpz5-33" value="GET" style="text;html=1;strokeColor=none;fillColor=none;align=left;verticalAlign=middle;whiteSpace=wrap;rounded=0;dashed=1;fontSize=12;fontFamily=Courier New;" vertex="1" parent="W7s1Gj_pDaNodwp3Ctu9-1">
          <mxGeometry x="120" y="320" width="40" height="20" as="geometry" />
        </mxCell>
        <mxCell id="6g0IqCDVZ-bBVkFQADLM-0" value="GET" style="text;html=1;strokeColor=none;fillColor=none;align=left;verticalAlign=middle;whiteSpace=wrap;rounded=0;dashed=1;fontSize=12;fontFamily=Courier New;" vertex="1" parent="W7s1Gj_pDaNodwp3Ctu9-1">
          <mxGeometry x="120" y="360" width="40" height="20" as="geometry" />
        </mxCell>
        <mxCell id="6g0IqCDVZ-bBVkFQADLM-1" value="AffinityZones$search=xyz" style="text;html=1;strokeColor=none;fillColor=none;align=left;verticalAlign=middle;whiteSpace=wrap;rounded=0;dashed=1;fontSize=12;fontFamily=Courier New;" vertex="1" parent="W7s1Gj_pDaNodwp3Ctu9-1">
          <mxGeometry x="160" y="360" width="200" height="20" as="geometry" />
        </mxCell>
        <mxCell id="6g0IqCDVZ-bBVkFQADLM-2" value="List System Principals that meet custom search criteria." style="text;html=1;strokeColor=none;fillColor=none;align=left;verticalAlign=middle;whiteSpace=wrap;rounded=0;dashed=1;fontFamily=Helvetica;fontSize=12;" vertex="1" parent="W7s1Gj_pDaNodwp3Ctu9-1">
          <mxGeometry x="400" y="360" width="320" height="20" as="geometry" />
        </mxCell>
        <mxCell id="DO0jpwAnce1b8jK784c--9" value="Description" style="text;html=1;strokeColor=none;fillColor=#f5f5f5;align=left;verticalAlign=middle;whiteSpace=wrap;rounded=0;fontSize=12;fontFamily=Helvetica;fontColor=#333333;fontStyle=0" vertex="1" parent="W7s1Gj_pDaNodwp3Ctu9-1">
          <mxGeometry x="400" y="200" width="320" height="20" as="geometry" />
        </mxCell>
        <mxCell id="DO0jpwAnce1b8jK784c--10" value="URL" style="text;html=1;strokeColor=none;fillColor=#f5f5f5;align=left;verticalAlign=middle;whiteSpace=wrap;rounded=0;fontSize=12;fontFamily=Helvetica;fontColor=#333333;fontStyle=0" vertex="1" parent="W7s1Gj_pDaNodwp3Ctu9-1">
          <mxGeometry x="160" y="200" width="230" height="20" as="geometry" />
        </mxCell>
        <mxCell id="DO0jpwAnce1b8jK784c--11" value="&lt;font style=&quot;font-size: 10px;&quot;&gt;VERB&lt;/font&gt;" style="text;html=1;strokeColor=none;fillColor=#f5f5f5;align=left;verticalAlign=middle;whiteSpace=wrap;rounded=0;fontSize=10;fontFamily=Helvetica;fontColor=#333333;fontStyle=0" vertex="1" parent="W7s1Gj_pDaNodwp3Ctu9-1">
          <mxGeometry x="120" y="200" width="30" height="20" as="geometry" />
        </mxCell>
        <mxCell id="DO0jpwAnce1b8jK784c--12" value="&lt;font style=&quot;font-size: 9px&quot;&gt;&lt;span style=&quot;font-size: 10px&quot;&gt;SummaryItems&lt;/span&gt;?$search=Organisation,abc:xyz&lt;/font&gt;" style="text;html=1;strokeColor=none;fillColor=none;align=left;verticalAlign=middle;whiteSpace=wrap;rounded=0;dashed=1;fontSize=9;fontFamily=Courier New;" vertex="1" parent="W7s1Gj_pDaNodwp3Ctu9-1">
          <mxGeometry x="160" y="260" width="250" height="20" as="geometry" />
        </mxCell>
        <mxCell id="DO0jpwAnce1b8jK784c--13" value="GET" style="text;html=1;strokeColor=none;fillColor=none;align=left;verticalAlign=middle;whiteSpace=wrap;rounded=0;dashed=1;fontSize=12;fontFamily=Courier New;" vertex="1" parent="W7s1Gj_pDaNodwp3Ctu9-1">
          <mxGeometry x="120" y="260" width="40" height="20" as="geometry" />
        </mxCell>
        <mxCell id="DO0jpwAnce1b8jK784c--14" value="&lt;font style=&quot;font-size: 10px&quot;&gt;SummaryItems?$search=Organisation:xyz&lt;/font&gt;" style="text;html=1;strokeColor=none;fillColor=none;align=left;verticalAlign=middle;whiteSpace=wrap;rounded=0;dashed=1;fontSize=10;fontFamily=Courier New;" vertex="1" parent="W7s1Gj_pDaNodwp3Ctu9-1">
          <mxGeometry x="160" y="240" width="240" height="20" as="geometry" />
        </mxCell>
        <mxCell id="DO0jpwAnce1b8jK784c--15" value="GET" style="text;html=1;strokeColor=none;fillColor=none;align=left;verticalAlign=middle;whiteSpace=wrap;rounded=0;dashed=1;fontSize=12;fontFamily=Courier New;" vertex="1" parent="W7s1Gj_pDaNodwp3Ctu9-1">
          <mxGeometry x="120" y="240" width="40" height="20" as="geometry" />
        </mxCell>
        <mxCell id="DO0jpwAnce1b8jK784c--16" value="List SummaryItems of type Principal custom matching xyz" style="text;html=1;strokeColor=none;fillColor=none;align=left;verticalAlign=middle;whiteSpace=wrap;rounded=0;dashed=1;fontFamily=Helvetica;fontSize=12;" vertex="1" parent="W7s1Gj_pDaNodwp3Ctu9-1">
          <mxGeometry x="400" y="240" width="320" height="20" as="geometry" />
        </mxCell>
        <mxCell id="DO0jpwAnce1b8jK784c--17" value="&lt;font style=&quot;font-size: 11px&quot;&gt;List SummaryItems of type Principal &amp;amp; abc custom matching xyz&lt;/font&gt;" style="text;html=1;strokeColor=none;fillColor=none;align=left;verticalAlign=middle;whiteSpace=wrap;rounded=0;dashed=1;fontFamily=Helvetica;fontSize=12;" vertex="1" parent="W7s1Gj_pDaNodwp3Ctu9-1">
          <mxGeometry x="400" y="260" width="320" height="20" as="geometry" />
        </mxCell>
        <mxCell id="EbmEJG97jyR3D29aAMmV-0" value="Context/Legend" parent="W7s1Gj_pDaNodwp3Ctu9-0" />
        <mxCell id="EbmEJG97jyR3D29aAMmV-1" value="Title/Diagram" parent="W7s1Gj_pDaNodwp3Ctu9-0" />
        <mxCell id="fs9-jv4jhwwD7MxO634F-0" value="&lt;font style=&quot;font-size: 12px ; font-weight: normal&quot;&gt;&lt;i&gt;Diagram: Base System Logical Module -&amp;nbsp;&lt;/i&gt;&lt;i&gt;Interoperability&amp;nbsp;&lt;/i&gt;&lt;i&gt;- APIs - Principals&lt;/i&gt;&lt;/font&gt;" style="text;strokeColor=none;fillColor=none;html=1;fontSize=12;fontStyle=1;verticalAlign=middle;align=left;shadow=0;glass=0;comic=0;opacity=30;fontColor=#808080;" vertex="1" parent="EbmEJG97jyR3D29aAMmV-1">
          <mxGeometry x="120" y="520" width="560" height="20" as="geometry" />
        </mxCell>
        <mxCell id="EbmEJG97jyR3D29aAMmV-2" value="Title/Page" visible="0" parent="W7s1Gj_pDaNodwp3Ctu9-0" />
        <mxCell id="fs9-jv4jhwwD7MxO634F-1" value="" style="group;fontSize=12;" vertex="1" connectable="0" parent="EbmEJG97jyR3D29aAMmV-2">
          <mxGeometry x="120" y="120" width="600" height="45" as="geometry" />
        </mxCell>
        <mxCell id="fs9-jv4jhwwD7MxO634F-2" value="&lt;font style=&quot;font-size: 12px&quot;&gt;Base Logical Module - Interoperability&amp;nbsp;- APIs - Principals&lt;/font&gt;" style="text;strokeColor=none;fillColor=none;html=1;fontSize=12;fontStyle=1;verticalAlign=middle;align=left;shadow=0;glass=0;comic=0;opacity=30;fontColor=#808080;" vertex="1" parent="fs9-jv4jhwwD7MxO634F-1">
          <mxGeometry y="20" width="600" height="20" as="geometry" />
        </mxCell>
        <mxCell id="fs9-jv4jhwwD7MxO634F-3" value="" style="line;strokeWidth=2;html=1;shadow=0;glass=0;comic=0;fillColor=none;fontSize=10;fontColor=#CCCCCC;labelBackgroundColor=none;strokeColor=#CCCCCC;" vertex="1" parent="fs9-jv4jhwwD7MxO634F-1">
          <mxGeometry y="35" width="600" height="10" as="geometry" />
        </mxCell>
        <mxCell id="EbmEJG97jyR3D29aAMmV-3" value="About" parent="W7s1Gj_pDaNodwp3Ctu9-0" />
        <mxCell id="EbmEJG97jyR3D29aAMmV-4" value="Untitled Layer" parent="W7s1Gj_pDaNodwp3Ctu9-0" />
      </root>
    </mxGraphModel>
  </diagram>
</mxfile>
